<?xml version="1.0" encoding="UTF-8"?>
<svg id="Calque_1" data-name="Calque 1" xmlns="http://www.w3.org/2000/svg" viewBox="0 0 766.789 283.264">
  <defs>
    <style>
      .cls-1 {
        stroke-miterlimit: 10;
      }

      .cls-1, .cls-2, .cls-3 {
        stroke-width: 35px;
      }

      .cls-1, .cls-2, .cls-3, .cls-4 {
        fill: none;
        stroke-linecap: round;
      }

      .cls-1, .cls-3 {
        stroke: #000;
      }

      .cls-2 {
        stroke: #d40023;
      }

      .cls-2, .cls-3, .cls-4 {
        stroke-linejoin: round;
      }

      .cls-4 {
        stroke: #fff;
        stroke-width: 3px;
      }
    </style>
  </defs>
  <polyline class="cls-3" points="19.382 238.264 146.382 19.264 146.382 191.264"/>
  <path class="cls-3" d="m197.382,191.264v-109.5h55.517s36.498,2.009,37.526,47.216c1.028,45.206,0,62.284,0,62.284"/>
  <line class="cls-3" x1="338.882" y1="191.264" x2="338.882" y2="82.764"/>
  <path class="cls-3" d="m388.382,191.264v-109h89s34.5,2,35.5,38,0,71,0,71"/>
  <line class="cls-3" x1="451.354" y1="82.764" x2="451.354" y2="191.264"/>
  <polygon class="cls-2" points="618.598 192.011 524.617 136.611 618.147 82.918 618.598 192.011"/>
  <line class="cls-1" x1="662.882" y1="82.764" x2="745.222" y2="194.264"/>
  <line class="cls-1" x1="630.382" y1="257.264" x2="747.882" y2="82.764"/>
  <path class="cls-4" d="m128.882,84.764v108.213s1,15.894,17.5,16.34,17.5-16.553,17.5-16.553V15.275s-3-11.511-15-13.511-17,8-17,8L3.882,229.764s-7,12,3,20,14,6,14,6c0,0,8,0,12-6s96-165,96-165Z"/>
  <path class="cls-4" d="m179.499,81.764v110.957s2.383,16.106,17.883,15.574,17.5-11.532,17.5-15.532,0-93.745,0-93.745l38-.255s8,1,15,10,5.319,27.75,5.319,27.75l.177,55.952s1.504,17.387,17.504,15.843,17-15.545,17-15.545v-70s-4-57-53-58-59.043,0-59.043,0c0,0-14.723-1-16.34,17Z"/>
  <path class="cls-4" d="m320.882,80.764v110.5s0,16.784,18,17.142,18-18.642,18-18.642v-109s-1-15.889-18-16.444-18,16.444-18,16.444Z"/>
  <path class="cls-4" d="m529.057,113.533l2.825-1.769s61-35,72-41,15-6,23-3,9.167,13.383,9.167,13.383l-.039,110.117s.872,6.5-5.628,13.713-15.235,4.34-15.235,4.34l-101.821-58.979s-6.444-4.574-6.764-13.736,8.319-14.839,8.319-14.839l8.718-5.062,4.045-2.349,1.412-.82,1.25-.726s-1.702-18.043-15.064-31.043-26.362-15-26.362-15c0,0-5-2-15-2h-87.574s-15.213,2-15.319,17v109.5s-2.106,16.794,17.394,17.147,18.096-17.147,18.096-17.147l.022-91.734,27.382.234v94.5s-.056,14.804,16.972,14.152,17.666-14.152,17.666-14.152l.362-94.5s25-2,26,19,0,75.5,0,75.5c0,0,1.889,13.846,18.444,14.173s16.981-17.173,16.981-17.173v-30.713"/>
  <polygon class="cls-4" points="559.882 136.764 600.882 112.764 600.882 161.233 559.882 136.764"/>
  <path class="cls-4" d="m706.648,112.764l28.234-42s8-10,19-4,11,15,11,15c0,0,2.149,4.306-3.426,12.153s-32.681,47.847-32.681,47.847l32.106,44s8,11-5,22-25-3-25-3l-23-31-65,96s-13.149,12-24.574,0-2.426-23-2.426-23l70-103-36.426-49.847s-9.574-10.153-.574-22.153,22-5,22-5c0,0,3,2,5,5s30.766,41,30.766,41Z"/>
</svg>