<?xml version="1.0" encoding="UTF-8"?>
<svg id="Calque_1" data-name="Calque 1" xmlns="http://www.w3.org/2000/svg" viewBox="0 0 225.882 256.598">
  <defs>
    <style>
      .cls-1 {
        stroke: #d40023;
      }

      .cls-1, .cls-2 {
        stroke-width: 35px;
      }

      .cls-1, .cls-2, .cls-3 {
        fill: none;
        stroke-linecap: round;
        stroke-linejoin: round;
      }

      .cls-2 {
        stroke: #000;
      }

      .cls-3 {
        stroke: #fff;
        stroke-width: 3px;
      }
    </style>
  </defs>
  <polyline class="cls-2" points="146.382 191.611 146.382 176.622 146.382 19.611 87.35 121.406 19.382 238.611"/>
  <polygon class="cls-1" points="206.832 191.019 112.851 135.62 206.382 81.926 206.832 191.019"/>
  <line class="cls-2" x1="146.382" y1="83.515" x2="146.382" y2="182.409"/>
  <polyline class="cls-3" points="163.382 126.611 189.382 111.611 189.382 160.452 163.382 145.611"/>
  <path class="cls-3" d="m163.382,86.239l35-19.628s8-5,18,1"/>
  <path class="cls-3" d="m216.382,67.26s7,4.351,7,12.351,1,113,1,113c0,0,0,11-10,14s-14,1-14,1l-37-22"/>
  <path class="cls-3" d="m128.382,86.239v106.809s4,15.87,18,15.217,17-12.153,17-12.153V17.643s2-15.032-16-16.032c0,0-7-1-11,3s-8,10.734-8,10.734L3.382,231.611s-7,14,6,21,23-3,23-3l62.913-107.628"/>
  <line class="cls-3" x1="109.509" y1="117.499" x2="127.18" y2="86.239"/>
  <path class="cls-3" d="m128.382,107.175l-27,14.436s-5.723,6.155-5.862,14.577,6.862,13.423,6.862,13.423l24.798,14.585"/>
</svg>